# xmcd
#
# Track frame offsets:
#	150
#	12857
#	28726
#	43542
#	55769
#	70657
#	83980
#	101868
#
# Disc length: 1572 seconds
#
# Revision: 1
# Processed by: cddbd v1.5.2PL0 Copyright (c) Steve Scherf et al.
# Submitted via: audiograbber 1.83.01
#
DISCID=60062208
DTITLE=Jon Langston - Showtime
DYEAR=2015
DGENRE=Country
TTITLE0='Til Sunrise
TTITLE1=Love While It Lasted
TTITLE2=Showtime
TTITLE3=Hammer Down
TTITLE4=Where Heartache Hangs Around
TTITLE5=In My Mind
TTITLE6=Forever Girl
TTITLE7=She Was The Right Girl
EXTD=
EXTT0=
EXTT1=
EXTT2=
EXTT3=
EXTT4=
EXTT5=
EXTT6=
EXTT7=
PLAYORDER=
